<svg width="244.1833465576172" height="57.94351494691168" viewBox="0 0 370 87.79919201123151" class="css-1j8o68f"><defs id="SvgjsDefs1704"></defs><g id="SvgjsG1705" featurekey="G09qjj-0" transform="matrix(1.8728095368148865,0,0,1.8728095368148865,-18.08759449226977,-9.188003844805085)" fill="#ffffff"><rect xmlns="http://www.w3.org/2000/svg" x="12.713" y="12.254" width="5.26" height="0.648"></rect><polygon xmlns="http://www.w3.org/2000/svg" points="28.348,4.906 17.705,15.619 17.705,13.447 12.979,13.447 12.979,20.375 9.658,23.717 9.658,27.887 28.348,9.078   47.035,27.887 47.035,23.717 "></polygon><path xmlns="http://www.w3.org/2000/svg" d="M46.25,28.42L28.348,10.398L10.441,28.42v20.752h-0.428v2.615h22.03v-9.804c0-2.24,1.815-4.056,4.056-4.056h0.951  c2.24,0,4.056,1.815,4.056,4.056v9.804h5.774v-2.615H46.25V28.42z M29.224,17.574c1.489,0.301,2.662,1.453,3.012,2.924h-3.012  V17.574z M27.671,17.574v2.924h-3.012C25.009,19.027,26.182,17.875,27.671,17.574z M23.528,39.508h-2.855v-4.19h2.855V39.508z   M19.12,35.317v4.19h-2.855v-4.19H19.12z M16.265,41.062h2.855v4.189h-2.855V41.062z M20.673,45.251v-4.189h2.855v4.189H20.673z   M24.609,22.051h3.062v3.174C26.099,24.906,24.878,23.641,24.609,22.051z M29.224,25.225v-3.174h3.062  C32.017,23.641,30.796,24.906,29.224,25.225z"></path><circle xmlns="http://www.w3.org/2000/svg" cx="39.054" cy="45.678" r="0.927"></circle></g><g id="SvgjsG1706" featurekey="0yvIkK-0" transform="matrix(2.9523411359802982,0,0,2.9523411359802982,84.68578785574651,5.7583273153835535)" fill="#ffffff"><path d="M3.78 5.84 l5.16 11.88 l5.16 -11.88 l1.88 0 l0 14.16 l-1.32 0 l0 -12.48 l-0.04 0 l-5.4 12.48 l-0.58 0 l-5.48 -12.48 l-0.04 0 l0 12.48 l-1.32 0 l0 -14.16 l1.98 0 z M20.16 17.44 q0 0.76 0.61 1.24 t1.51 0.48 q1.62 0 2.41 -0.85 t0.79 -2.31 l0 -0.64 l-1.44 0 q-1.84 0 -2.86 0.56 t-1.02 1.52 z M22.880000000000003 10.52 q1.86 0 2.76 0.86 t0.92 2.4 l0 2.74 q0 2.24 0.18 3.48 l-1.12 0 q-0.12 -0.62 -0.12 -1.5 l-0.04 0 q-1 1.74 -3.22 1.74 q-1.5 0 -2.38 -0.74 t-0.9 -2 q0 -1.54 1.33 -2.32 t3.71 -0.78 l1.48 0 l0 -0.54 q0 -1.14 -0.7 -1.7 t-1.9 -0.56 q-1.6 0 -2.82 1.04 l-0.7 -0.82 q0.66 -0.64 1.63 -0.97 t1.89 -0.33 z M33.88 10.52 q0.34 0 0.7 0.1 l-0.14 1.18 q-0.22 -0.08 -0.48 -0.08 q-1.46 0 -2.23 0.9 t-0.77 2.34 l0 5.04 l-1.2 0 l0 -6.74 q0 -0.2 -0.1 -2.5 l1.2 0 q0.04 1.38 0.08 1.62 q1.04 -1.86 2.94 -1.86 z M37.10000000000001 15.379999999999999 q0 1.66 1.04 2.72 t2.62 1.06 q1.64 0 2.65 -1.08 t1.01 -2.7 q0 -1.6 -1 -2.68 t-2.68 -1.1 q-1.62 0 -2.62 1.08 t-1.02 2.7 z M40.760000000000005 10.52 q2.12 0 3.48 1.38 t1.38 3.48 q0 2.14 -1.39 3.49 t-3.47 1.37 q-2.18 -0.02 -3.51 -1.4 t-1.35 -3.46 q0 -2.14 1.37 -3.49 t3.49 -1.37 z M52.64000000000001 10.52 q2 0 3.44 1.6 l-0.96 0.72 q-1.16 -1.24 -2.5 -1.24 q-1.56 0 -2.59 1.06 t-1.05 2.72 q0 1.66 1.04 2.71 t2.6 1.07 q1.48 0 2.5 -1.28 l0.92 0.76 q-1.34 1.58 -3.4 1.6 q-2.1 0 -3.46 -1.36 t-1.4 -3.5 q0 -2.06 1.35 -3.44 t3.51 -1.42 z M62.480000000000004 12.08 q1.54 0 2.38 -0.69 t0.84 -1.83 t-0.82 -1.82 t-2.44 -0.7 l-2.86 0 l0 5.04 l2.9 0 z M62.080000000000005 5.84 q4.9 0 4.94 3.72 q0 3.14 -3.62 3.64 l4.12 6.8 l-1.5 0 l-3.98 -6.72 l-2.46 0 l0 6.72 l-1.32 0 l0 -14.16 l3.82 0 z M77.02000000000001 14.6 q0 -1.26 -0.94 -2.13 t-2.28 -0.87 q-1.3 0 -2.24 0.87 t-1.1 2.13 l6.56 0 z M73.88000000000001 10.52 q1.92 0 3.12 1.24 t1.22 3.2 l0 0.72 l-7.76 0 q0.08 1.56 1.03 2.51 t2.47 0.97 q0.94 0 1.79 -0.45 t1.31 -1.19 l0.88 0.74 q-1.3 1.98 -4 1.98 q-2.12 -0.02 -3.39 -1.38 t-1.29 -3.5 q0 -2.08 1.31 -3.45 t3.31 -1.39 z M85.30000000000001 10.52 q1.8 0 2.65 0.97 t0.87 3.05 l0 5.46 l-1.2 0 l0 -5.4 q0 -1.54 -0.57 -2.27 t-1.75 -0.73 q-1.46 0 -2.32 1.01 t-0.88 2.81 l0 4.58 l-1.2 0 l0 -6.74 q-0.02 -0.58 -0.1 -2.5 l1.2 0 q0.04 1.58 0.08 1.62 l0.06 0 q0.4 -0.84 1.27 -1.35 t1.89 -0.51 z M92.70000000000002 8.1 l1.2 0 l0 2.66 l2.64 0 l0 1.08 l-2.64 0 l0 6.04 q0 0.58 0.34 0.93 t0.94 0.35 q0.66 0 1.36 -0.32 l0.1 1.08 q-0.9 0.32 -1.58 0.32 q-1.18 0 -1.77 -0.66 t-0.59 -1.7 l0 -6.04 l-2 0 l0 -1.08 l2 0 l0 -2.66 z"></path></g></svg>